<svg
        version="1.1"
        id="svg2"
        width="512"
        height="512"
        viewBox="0 0 512 512"
        xmlns="http://www.w3.org/2000/svg">
    <g
            id="g8"
            transform="matrix(1.84,0,0,-1.84,-390,716)">
        <g
                id="g10"
                transform="scale(0.1)">
            <path
                    d="m 3510,764.219 c 370.86,0 673.32,50.89 673.32,113.269 0,62.391 -302.46,113.274 -673.32,113.274 -370.85,0 -673.32,-50.883 -673.32,-113.274 0,-62.379 302.47,-113.269 673.32,-113.269"
                    style="fill:#dcdbdb;fill-opacity:1;fill-rule:evenodd;stroke:none"
                    id="path14"/>
            <path
                    d="m 3315.41,3819.54 51.45,-67.61 208.72,-72.45 86.45,160.41 c -85.89,44.81 -291.71,31.23 -342.47,-15.96 -1.44,-1.46 -2.82,-2.91 -4.15,-4.39"
                    style="fill:#f9b00d;fill-opacity:1;fill-rule:evenodd;stroke:none"
                    id="path16"/>
            <path
                    d="m 4149.51,3480.28 280.38,-97.31 22.38,109.86 c -49.55,43.4 -102.89,75.61 -136.28,76.82 -70.61,-0.33 -107.23,-56.1 -166.48,-89.37 z m -487.48,359.61 -86.45,-160.41 179.5,-62.3 c -40.97,73.74 -17.36,146.23 -67.2,203.37 -6.44,7.39 -15.23,13.8 -25.85,19.34 v 0"
                    style="fill:#8ac029;fill-opacity:1;fill-rule:evenodd;stroke:none"
                    id="path18"/>
            <path
                    d="m 4452.27,3492.83 -22.38,-109.86 140.94,-48.93 c -13.16,48.65 -63.53,110.62 -118.56,158.79"
                    style="fill:#389abe;fill-opacity:1;fill-rule:evenodd;stroke:none"
                    id="path20"/>
            <path
                    d="m 4514.58,2884.35 -207.82,-208.53 c 9.68,-44.03 15.82,-89.43 18.07,-135.82 l 451.37,180.16 c -82.7,20.61 -183.27,-8.99 -261.62,164.19"
                    style="fill:#2c6bb2;fill-opacity:1;fill-rule:evenodd;stroke:none"
                    id="path22"/>
            <path
                    d="m 4306.76,2675.82 207.82,208.53 c -3.95,8.71 -7.84,17.85 -11.65,27.61 -101.22,258.51 63.01,275.59 71.11,394.85 0.58,8.41 -0.58,17.55 -3.21,27.23 l -140.94,48.93 -134.62,-661.1 c 4.27,-15.18 8.08,-30.53 11.49,-46.05"
                    style="fill:#3b7bc7;fill-opacity:1;fill-rule:evenodd;stroke:none"
                    id="path24"/>
            <path
                    d="m 4295.27,2721.87 134.62,661.1 -280.38,97.31 c -50.05,-28.09 -116.22,-40.15 -232.7,10.76 -93.02,40.66 -138.11,83.62 -161.73,126.14 l -179.5,62.3 -63.67,-118.16 207.53,-272.69 c 278.09,-73.65 497.91,-290.44 575.83,-566.76"
                    style="fill:#52aa2d;fill-opacity:1;fill-rule:evenodd;stroke:none"
                    id="path26"/>
            <path
                    d="m 3719.44,3288.63 -207.53,272.69 -138.45,-256.92 c 44.39,7.48 90,11.42 136.52,11.42 72.41,0 142.61,-9.47 209.46,-27.19"
                    style="fill:#f9b00d;fill-opacity:1;fill-rule:evenodd;stroke:none"
                    id="path28"/>
            <path
                    d="m 3290.58,3778.4 76.28,-26.47 -51.45,67.61 c -11.62,-12.86 -19.39,-26.66 -24.83,-41.14"
                    style="fill:#f0a60c;fill-opacity:1;fill-rule:evenodd;stroke:none"
                    id="path30"/>
            <path
                    d="m 3366.86,3751.93 145.05,-190.61 63.67,118.16 z"
                    style="fill:#f0a60c;fill-opacity:1;fill-rule:evenodd;stroke:none"
                    id="path32"/>
            <path
                    d="m 3511.91,3561.32 -145.05,190.61 -76.28,26.47 c -33.9,-89.89 21.48,-206.51 -197.71,-292.35 -258.52,-101.23 -275.57,63 -394.89,71.12 -58.24,3.97 -151.97,-74.88 -210.35,-151.56 l 511.96,-269.2 c 106.09,85.18 233.93,144.39 373.87,167.99 l 138.45,256.92"
                    style="fill:#f57615;fill-opacity:1;fill-rule:evenodd;stroke:none"
                    id="path34"/>
            <path
                    d="m 2462.52,2192.51 296.82,-27.59 3.62,6.71 c -44.23,100.48 -68.79,211.55 -68.79,328.37 0,131.08 30.96,254.89 85.9,364.65 l -341.47,453.69 c -2,-6.95 -3.19,-13.41 -3.4,-19.25 0.58,-130.2 189.83,-144.76 78.61,-399.15 -111.22,-254.4 -239.43,-150.34 -329.51,-228.97 -33.24,-28.98 -45.87,-93.51 -47.28,-170.97 1.41,-77.46 14.04,-141.99 47.28,-170.98 76.5,-66.77 180.48,-1.85 278.22,-136.51"
                    style="fill:#bb0d8e;fill-opacity:1;fill-rule:evenodd;stroke:none"
                    id="path36"/>
            <path
                    d="m 2438.6,3318.34 341.47,-453.69 c 52.95,105.74 128.16,198.38 219.52,271.76 l -511.96,269.2 c -23.91,-31.39 -41.86,-62.43 -49.03,-87.27"
                    style="fill:#ec0b63;fill-opacity:1;fill-rule:evenodd;stroke:none"
                    id="path38"/>
            <path
                    d="m 2762.96,2171.63 -3.62,-6.71 6.89,-0.65 z"
                    style="fill:#f57615;fill-opacity:1;fill-rule:evenodd;stroke:none"
                    id="path40"/>
            <path
                    d="m 2478.52,1803.1 82.05,32.75 -37.47,28.95 c -13.16,-22.74 -29.53,-42.22 -44.58,-61.7"
                    style="fill:#4d1d6f;fill-opacity:1;fill-rule:evenodd;stroke:none"
                    id="path42"/>
            <path
                    d="m 2523.1,1864.8 37.47,-28.95 27.31,10.89 171.46,318.18 -296.82,27.59 c 17.35,-23.9 34.52,-54.1 51.29,-92.46 51.79,-118.46 38.41,-184.89 9.29,-235.25"
                    style="fill:#a40b76;fill-opacity:1;fill-rule:evenodd;stroke:none"
                    id="path44"/>
            <path
                    d="m 2759.34,2164.92 -171.46,-318.18 303.63,121.18 c -50.59,58.76 -92.93,124.8 -125.28,196.35 l -6.89,0.65"
                    style="fill:#f14d1c;fill-opacity:1;fill-rule:evenodd;stroke:none"
                    id="path46"/>
            <path
                    d="m 2560.57,1835.85 -82.05,-32.75 c -23.16,-29.99 -43.14,-60.02 -43.32,-102.19 0.74,-20.31 12.95,-48.02 32.17,-77.76 l 108.33,201 12.18,22.59 -27.31,-10.89"
                    style="fill:#3d2479;fill-opacity:1;fill-rule:evenodd;stroke:none"
                    id="path48"/>
            <path
                    d="m 3468.3,1134.17 -103.12,79.69 -67.2,-8.62 c 5.45,-10.19 12.43,-19.93 21.58,-29.18 24.22,-22.51 83.76,-37.38 148.74,-41.89"
                    style="fill:#a40b76;fill-opacity:1;fill-rule:evenodd;stroke:none"
                    id="path50"/>
            <path
                    d="m 2934.9,1546.48 -359.2,277.67 -108.33,-201 c 54.41,-84.22 165.02,-184.8 230.61,-180.32 88.47,6.02 120.76,97.85 236.92,103.65"
                    style="fill:#422071;fill-opacity:1;fill-rule:evenodd;stroke:none"
                    id="path52"/>
            <path
                    d="m 3297.98,1205.24 67.2,8.62 -87.56,67.7 c 3.39,-26.92 7.71,-52.76 20.36,-76.32"
                    style="fill:#9c0557;fill-opacity:1;fill-rule:evenodd;stroke:none"
                    id="path54"/>
            <path
                    d="m 2575.7,1824.15 359.2,-277.67 c 40.48,2.03 91.14,-6.38 157.97,-32.54 14.15,-5.54 27.09,-11.22 39.05,-17.01 l 204.94,205.66 c -170.44,36.82 -321.05,126.89 -433.57,251.96 -3.98,4.42 -7.9,8.87 -11.78,13.37 l -303.63,-121.18 -12.18,-22.59"
                    style="fill:#9c0557;fill-opacity:1;fill-rule:evenodd;stroke:none"
                    id="path56"/>
            <path
                    d="m 3336.86,1702.59 -204.94,-205.66 c 134.18,-64.87 136.7,-143.95 145.7,-215.37 l 87.56,-67.7 357.06,45.84 c 11.62,63.85 10.2,136.04 111.72,204.71 l -175.55,233.25 c -48.13,-8.86 -97.74,-13.48 -148.43,-13.48 -59.41,0 -117.33,6.35 -173.12,18.41"
                    style="fill:#f03e22;fill-opacity:1;fill-rule:evenodd;stroke:none"
                    id="path58"/>
            <path
                    d="m 3722.24,1259.7 -357.06,-45.84 103.12,-79.69 c 87.98,-6.13 185.93,6.71 219.58,45.27 21.22,24.33 29.11,51.44 34.36,80.26"
                    style="fill:#ec0b63;fill-opacity:1;fill-rule:evenodd;stroke:none"
                    id="path60"/>
            <path
                    d="m 4536.64,1781.3 -328.13,-303.54 c 31.78,-24.85 62.83,-47.2 107.48,-47.42 77.82,2.84 264.1,174.05 258.05,262.84 -2.39,35.37 -18.52,61.75 -37.4,88.12"
                    style="fill:#8fd136;fill-opacity:1;fill-rule:evenodd;stroke:none"
                    id="path62"/>
            <path
                    d="m 4208.51,1477.76 328.13,303.54 c -37.17,51.89 -84.89,103.74 -59.29,223.88 l -298.39,27.75 c -10.48,-15 -21.47,-29.61 -32.92,-43.84 l -90.66,-445.16 c 71.53,0.59 112.93,-34.74 153.13,-66.17"
                    style="fill:#59c251;fill-opacity:1;fill-rule:evenodd;stroke:none"
                    id="path64"/>
            <path
                    d="m 4055.38,1543.93 90.66,445.16 c -6.73,-8.35 -13.58,-16.58 -20.61,-24.65 -118.7,-136.28 -281.92,-232.76 -467.02,-266.78 l 175.55,-233.25 c 22.27,15.05 49.45,29.94 82.85,44.55 56.85,24.85 101.69,34.66 138.57,34.97"
                    style="fill:#f57615;fill-opacity:1;fill-rule:evenodd;stroke:none"
                    id="path66"/>
            <path
                    d="m 4178.96,2032.93 298.39,-27.75 c 5.23,24.6 13.5,51.99 25.58,82.86 16.9,43.16 35.01,75.63 53.86,100.28 l -164.07,215.59 -66.94,87.98 c -1.67,-170.6 -55.71,-328.71 -146.82,-458.96"
                    style="fill:#46ae8f;fill-opacity:1;fill-rule:evenodd;stroke:none"
                    id="path68"/>
            <path
                    d="m 4392.72,2403.91 164.07,-215.59 c 34.11,44.59 70.7,63.44 107.15,72.99 l -271.22,142.6"
                    style="fill:#2c6bb2;fill-opacity:1;fill-rule:evenodd;stroke:none"
                    id="path70"/>
            <path
                    d="m 4392.72,2403.91 271.22,-142.6 c 64.08,16.73 127.76,4.73 176.87,53.4 31.46,33.85 42.28,103.65 42.14,185.29 0.14,81.64 -10.68,151.44 -42.14,185.29 -19.52,19.35 -41.37,29.08 -64.61,34.87 L 4324.83,2540 c 0.63,-13.26 0.98,-26.59 0.98,-40 l -0.03,-8.11 66.94,-87.98"
                    style="fill:#2a3b99;fill-opacity:1;fill-rule:evenodd;stroke:none"
                    id="path72"/>
            <path
                    d="m 3356.94,2948.52 171.09,-89.96 c 108.85,-5.39 204.93,-59.24 267.11,-140.44 l 314.01,-165.11 c -2.94,12.02 -7.31,21.87 -13.51,28.52 -40.71,40.34 -104.15,-14.01 -148.69,99.77 -44.54,113.75 27.72,121.27 31.3,173.76 2.66,39.07 -79.32,114.41 -113.58,115.66 -57.29,-0.26 -63.69,-83.53 -175.65,-34.6 -111.96,48.94 -66.16,105.38 -100.75,145 -25.73,29.51 -136.98,24.83 -162.08,1.49 -36.11,-36.43 3.64,-91.08 -69.25,-134.09"
                    style="fill:#f9b00d;fill-opacity:1;fill-rule:evenodd;stroke:none"
                    id="path74"/>
            <path
                    d="m 2912.46,2449.01 75.29,139.71 -3.94,5.26 c -20.84,-3.85 -40.53,-4.17 -57.21,-18.74 -14.63,-12.76 -20.19,-41.15 -20.82,-75.24 0.36,-19.46 2.33,-37.09 6.68,-50.99"
                    style="fill:#bb0d8e;fill-opacity:1;fill-rule:evenodd;stroke:none"
                    id="path76"/>
            <path
                    d="m 3082.57,2764.67 101.82,188.91 c -9.4,6.08 -19.32,10.79 -31.74,11.64 -39.05,2.66 -114.42,-79.32 -115.63,-113.56 0.16,-36.17 33.36,-52.05 45.55,-86.99 z m -98.76,-170.69 3.94,-5.26 3.69,6.84 c -2.56,-0.6 -5.11,-1.11 -7.63,-1.58 v 0"
                    style="fill:#ec0b63;fill-opacity:1;fill-rule:evenodd;stroke:none"
                    id="path78"/>
            <path
                    d="m 3833.36,2343.84 236.72,94.48 40.68,16.24 c 2.45,13.35 3.46,28.83 3.43,45.44 0.03,19.86 -1.4,38.11 -5.04,53.01 l -314.01,165.11 c 46.32,-60.46 73.87,-136.07 73.87,-218.12 0,-55.96 -12.82,-108.94 -35.65,-156.16 z m -648.97,609.74 -101.82,-188.91 c 7.12,-20.42 7.1,-47.36 -10.97,-88.68 -25.82,-59.06 -53.74,-74.19 -80.16,-80.43 l -3.69,-6.84 337.06,-447.85 58.17,23.22 c -54.1,20.47 -102,53.64 -139.98,95.88 -57.21,63.61 -92.03,147.75 -92.03,240.03 0,198.27 160.75,359.02 359.02,359.02 6.04,0 12.06,-0.17 18.04,-0.46 l -171.09,89.96 c -8.54,-5.04 -18.59,-9.93 -30.52,-14.6 -86.82,-33.99 -111.75,0.04 -142.03,19.66 v 0"
                    style="fill:#f03e22;fill-opacity:1;fill-rule:evenodd;stroke:none"
                    id="path80"/>
            <path
                    d="m 3324.84,2140.87 -337.09,447.85 -75.29,-139.71 c 3.26,-10.44 7.86,-18.78 14.14,-24.25 39.64,-34.59 96.07,11.18 145,-100.76 48.94,-111.96 -34.34,-118.36 -34.58,-175.67 0.1,-2.82 0.71,-5.98 1.76,-9.39 l 228.05,-21.2 81.09,-7.54 -23.08,30.67"
                    style="fill:#f57615;fill-opacity:1;fill-rule:evenodd;stroke:none"
                    id="path82"/>
            <path
                    d="m 3107.38,2054.08 159.45,63.66 -228.05,21.2 c 7.58,-24.56 38.22,-62.16 68.6,-84.86"
                    style="fill:#f14d1c;fill-opacity:1;fill-rule:evenodd;stroke:none"
                    id="path84"/>
            <path
                    d="m 3507.38,1898.32 -159.46,211.88 -81.09,7.54 -159.45,-63.66 c 16.4,-12.25 32.71,-20.17 45.27,-19.31 52.5,3.57 60.01,75.85 173.77,31.3 113.78,-44.55 59.44,-107.97 99.77,-148.68 12.6,-11.72 46.9,-18.71 81.19,-19.07"
                    style="fill:#9c0557;fill-opacity:1;fill-rule:evenodd;stroke:none"
                    id="path86"/>
            <path
                    d="m 3606.47,1973.11 -73.53,-73.78 c 24.39,2.31 45.77,8.57 55.33,19.54 13.87,15.9 14.82,34.52 18.2,54.24 z m 115.47,102.3 -12.38,1.15 -7.32,-7.35 c 6.99,2.61 13.56,4.66 19.7,6.2 z m 195.77,-18.18 -127.05,11.8 c 26.52,-14.59 42.65,-39.61 74.01,-39.75 13.16,0.48 33.32,11.86 53.04,27.95 v 0"
                    style="fill:#f57615;fill-opacity:1;fill-rule:evenodd;stroke:none"
                    id="path88"/>
            <path
                    d="m 3532.94,1899.33 73.53,73.78 c 5.04,29.45 15.51,61.46 82.55,90.77 4.59,1.99 8.98,3.76 13.22,5.33 l 7.32,7.35 -361.64,33.64 159.46,-211.88 c 8.65,-0.08 17.28,0.22 25.56,1.01"
                    style="fill:#ec0b63;fill-opacity:1;fill-rule:evenodd;stroke:none"
                    id="path90"/>
            <path
                    d="m 3709.56,2076.56 235,235.82 2.39,6.32 c 24.11,61.57 53.74,73.89 82.3,78.65 l 40.83,40.97 -236.72,-94.48 c -13.97,-28.86 -31.7,-55.6 -52.55,-79.53 -65.8,-75.56 -162.72,-123.33 -270.82,-123.33 -44.72,0 -87.51,8.17 -127.01,23.11 l -58.14,-23.22 23.08,-30.67 361.64,-33.64"
                    style="fill:#f0a60c;fill-opacity:1;fill-rule:evenodd;stroke:none"
                    id="path92"/>
            <path
                    d="m 3944.56,2312.38 -235,-235.82 12.38,-1.15 c 31.27,7.84 52.02,2.79 68.72,-6.38 l 127.05,-11.8 c 31.68,25.78 62.18,63.63 60.54,87.71 -3.5,51.5 -73.11,59.74 -33.69,167.44 z m 125.52,125.94 -40.83,-40.97 c 24.24,4.01 47.71,2.61 66.39,21.11 7.45,8.01 12.26,20.6 15.12,36.1 l -40.68,-16.24 v 0"
                    style="fill:#b2c31a;fill-opacity:1;fill-rule:evenodd;stroke:none"
                    id="path94"/>
        </g>
    </g>
</svg>
